# xmcd CD database file
#
# Track frame offsets:
#	150
#	15620
#	28945
#	44382
#	58672
#	77162
#	90497
#	100544
#	119734
#	131519
#	139561
#	153836
#
# Disc length: 2127 seconds
#
# Revision: 0
# Processed by: cddbd v1.5.2PL0 Copyright (c) Steve Scherf et al.
# Submitted via: CDex 1.50Beta7
#
DISCID=94084d0c
DTITLE=The Amazing Brainboy - Seek No Cure
DYEAR=2008
DGENRE=Blues
TTITLE0=Come on into my Kitchen
TTITLE1=Too Much Religion
TTITLE2=No Woman Blues
TTITLE3=32-20 Blues
TTITLE4=Seek No Cure
TTITLE5=Don't sing me a Lovesong
TTITLE6=Headbangin' Hillbilly Blues
TTITLE7=Paychecks
TTITLE8=Pony Blues
TTITLE9=Quarter-past three Blues
TTITLE10=Sweet Home Chicago
TTITLE11=My Dog ate your Cat
EXTD=YEAR: 2008
EXTT0=
EXTT1=
EXTT2=
EXTT3=
EXTT4=
EXTT5=
EXTT6=
EXTT7=
EXTT8=
EXTT9=
EXTT10=
EXTT11=
PLAYORDER=
